# xmcd
# 
# Track frame offsets:
#     150
#     21375
#     35925
#     51450
#     72150
#     97275
#     111462
#     129525
#     154950
#     170475
#     186075
#     197025
#     215700
# 
# Disc length: 3147
# 
# Revision: 7
# Processed by: cddbd v1.5.2PL0 Copyright (c) Steve Scherf et al.
# Submitted via: fre:ac v1.0.17
# 
DISCID=d40c490d
DTITLE=Hank Shizzoe - Plenty Of Time
DYEAR=1998
DGENRE=Blues
TTITLE0=Being There With You
TTITLE1=Indian Girl
TTITLE2=Arrows Through My Heart
TTITLE3=Train Song
TTITLE4=One Fine Day
TTITLE5=She's Back In Town
TTITLE6=The Life Of A Thief
TTITLE7=What I Can't Forget
TTITLE8=Silvertone Guitar
TTITLE9=1-800-Grand-Prize
TTITLE10=I Love You But It Leads To Nothing
TTITLE11=Between The Lines
TTITLE12=Same Time Same Place
EXTD=Digipak.\nCCD 11060
EXTT0=
EXTT1=
EXTT2=
EXTT3=
EXTT4=
EXTT5=
EXTT6=
EXTT7=
EXTT8=
EXTT9=
EXTT10=
EXTT11=
EXTT12=
PLAYORDER=
